<?xml version="1.0" encoding="UTF-8"?>
<svg id="Calque_2" xmlns="http://www.w3.org/2000/svg" version="1.1" viewBox="0 0 145.9 144">
  <!-- Generator: Adobe Illustrator 30.3.0, SVG Export Plug-In . SVG Version: 2.1.3 Build 182)  -->
  <defs>
    <style>
      .st0 {
        fill: #ffc349;
      }
    </style>
  </defs>
  <polygon class="st0" points=".9 51.8 45.9 18.1 144.9 60.3 144.9 81.5 45.9 117.6 .9 88.9 .9 51.8"/>
  <g id="Calque_1-2">
    <g>
      <path d="M99.8,97.9v2.6-2.6h0ZM101.7,102.2h0v-5,5Z"/>
      <path d="M25.8,33.2h0v-1.6,1.6ZM9.8,40.8l16.1-14.1h0s-16.1,14.1-16.1,14.1ZM27.8,25v5.7-5.7h0Z"/>
      <path d="M99.7,102.2v.9h0v-2.5,1.7h0Z"/>
      <path d="M25.8,26.7v4.9-4.9h0ZM27.8,31.7h0v-1.1,1.1Z"/>
      <g>
        <path d="M43.8,38.4c-.2,0-.4.6-.4,1.5v55.6c0,1.2.2,1.8.4,1.9.2,0,.4-.5.5-1.8s0-55.7,0-55.7c0-1.1-.2-1.5-.5-1.5Z"/>
        <path d="M89,50.1v12.7c.7,0,1.2,0,1.5-.5.3-.4.4-1.8.4-4.3v-3c0-1.8,0-3-.4-3.6s-.8-1-1.5-1.2h0Z"/>
        <path d="M72.4,78.1h2.2c-.4-9.5-.7-19.1-1-28.6-.5,9.6-1,19.2-1.2,28.8h0v-.2Z"/>
        <path d="M6.5,58.2v9.4h.3c.3,0,.5-.3.7-.8,0-.5.2-1.4.2-2.8v-3.2c0-1.3,0-2.1-.2-2.5s-1,0-1,0h0Z"/>
        <path d="M9.8,45.3h0l16.1-12h0s-16.1,12-16.1,12Z"/>
        <path d="M144.9,56.7L45.9,0,.9,45.1v3.4l6.8-6v4.2l-6.8,5.1v37.1l6.8,4.3v4.1l-6.8-5.1v6.8l45,45,99-56.6v-3.9l-7.1,3.1v-2.4l7.1-2.6v-21.2l-7.1-3.1v-2.4l7.1,3.6M100.8,36.5l35,17.5v2.5l-35-15v-5.1h0ZM126.9,67v5.6h-4v7.1c1.9-.3,2.8-.5,4.7-.9v5.8c-4.4,1.5-6.6,2.2-11.1,3.6v-36.8c4.2,1.7,6.4,2.6,10.6,4.3v5.8c-1.7-.4-2.6-.7-4.2-1.1v6.1c1.6.2,2.4.3,4,.5ZM99.3,44.6h0c1.9.8,2.9,1.1,4.8,1.9,3.1,1.2,5.2,2.3,6.2,3.2,1.1.9,1.9,2,2.5,3.2s.9,2.5,1.1,3.8c0,1.3.2,3.8.2,7.4v13.5c0,3.5,0,5.8-.3,7-.2,1.2-.6,2.2-1.1,3.1-.5.8-1.2,1.5-1.9,2-.8.5-1.9,1-3.4,1.5-3.2,1.1-4.8,1.6-8,2.7v-49.4h0ZM64.9,18.6l33.9,16.9v5.2l-33.9-14.5v-7.6ZM95.9,70.6c.4,1.1.7,2.1.8,3,0,.9.2,3.4.2,7.6v13.5c-2.4.8-3.5,1.2-5.9,2v-18.5c0-3,0-4.8-.3-5.5s-.8-1.1-1.6-1.1v25.7c-2.5.8-3.8,1.3-6.4,2.1v-61.6c1.8.7,2.7,1.1,4.5,1.8,3,1.2,5,2.3,6.1,3.2s1.9,2.5,2.6,4.8c.7,2.2,1,5.5,1,9.9s-.2,6.6-.7,8c-.5,1.3-1.4,2.1-2.8,2.3,1.3.8,2.1,1.7,2.5,2.8ZM81.6,99.8c-2.6.9-3.9,1.3-6.5,2.2,0-4.8-.2-7.2-.3-12-.9.2-1.4.3-2.3.4,0,5-.2,7.5-.4,12.5-2.6.9-3.9,1.3-6.6,2.2,1-24.3,2.1-48.6,3.2-72.9,3.7,1.5,5.5,2.2,9.2,3.7,1.2,21.3,2.4,42.6,3.6,63.8h.1ZM64.5,54.8v3.2h0c-2.5-.3-3.8-.5-6.4-.8v-7.2c0-4.5,0-7.4-.2-8.6s-.4-1.8-.9-2c-.4,0-.7.3-.8,1.3s-.2,3.5-.2,7.6v38.9c0,3.6,0,6,.2,7.2,0,1.1.4,1.6.8,1.5.5,0,.8-.8,1-2.1.2-1.3.2-3.8.2-7.5v-9.4h-1.3v-12.2c3,.2,4.5.3,7.5.5v40.2c-1.6.5-2.4.8-4,1.3-.2-2.2-.3-3.2-.6-5.4-.4,2.5-1,4.5-1.6,6-.7,1.4-1.4,2.3-2.3,2.6-1.1.4-2.1,0-3-1.6s-1.6-3.5-2.1-6-.8-5.3-.9-8.2c0-2.9-.2-7.3-.2-13.2v-25.5c0-8.2,0-14.1.4-17.7s1-6.8,2.2-9.3,2.7-3.4,4.6-2.6c1.9.8,3.4,2.7,4.7,5.6,1.2,2.9,2,6,2.4,9.3s.6,8.1.6,14.2h0ZM27.8,30.6v-5.7h0l18.1-15.9,16.9,8.5v7.8l-16.9-7.2-18.1,13.6s0-1.1,0-1.1ZM47.9,60v34.2c0,3.7-.3,7-.6,9.9s-.8,5-1.4,6.2c-.6,1.3-1.2,1.6-2,1.2-.7-.5-1.4-1.6-1.9-3.3-.6-1.8-1-4.1-1.4-7s-.6-6-.6-9.3v-47.2c0-3.3.3-6.4.6-9.4s.8-5.4,1.4-7.3c.6-1.9,1.2-3.2,2-3.8.7-.5,1.4-.3,1.9.8.6,1.1,1,3.1,1.4,5.9.3,2.9.5,6.2.6,9.8s0,19.3,0,19.3ZM25.8,26.7h0v6.5l-16.1,12.1v-4.4l16.1-14.1h0ZM24.4,38.9v60.5c-1.4-.8-2.1-1.2-3.5-2.1v-55.8c1.4-1,2.1-1.5,3.5-2.6ZM19.1,71.1c.2,1.1.4,2.2.4,3.2v22.2c-1.3-.8-1.9-1.2-3.2-1.9v-16.5c0-2.7,0-4.3-.2-5-.1-.6-.4-.9-.9-.9v21.8c-1.4-.8-2.1-1.2-3.5-2.1v-43.7h0c1-.7,1.5-1.1,2.5-1.8,1.6-1.2,2.8-1.8,3.3-1.7.6,0,1,1,1.4,2.8s.5,5.1.5,9.7-.1,7.1-.4,8.5c-.3,1.5-.8,2.4-1.5,2.7.7.6,1.1,1.5,1.4,2.6h.2ZM7.5,74.1h-.9v14.9c-1.4-.8-2.1-1.2-3.5-2.1v-32.4c1.4-1,2.1-1.5,3.5-2.6,1-.7,1.7-1,2.2-.9.5,0,.9.5,1.2,1.2s.4,1.7.5,2.9c0,1.2.1,3.1.1,5.8v3.7c0,2.7,0,4.7-.3,5.9-.2,1.2-.5,2.2-1,2.8-.5.6-1,.8-1.8.8h0ZM27.4,112h0l-17.6-13.1v-4.3l17.6,11.2v6.2ZM28.4,101.6c-1.2-.7-1.2-.8-2.4-1.5v-62.3c2.1-1.7,3.6-2.7,3.6-2.7l2.6,31.1,2.6-33.6s1.9-1.4,3.7-2.7v78.1q-1.2-.7-2.4-1.4l-.6-50.9c-.8,21.5-1,22.6-2,49,0,0-2.8-1.5-2.6-1.6-.5-14.8-.5-27.7-1.9-44.8l-.6,43.3h0ZM61.9,118.7l-15.8,6.8-16.7-12.5v-5.7l16.5,10.3,16-5.7v6.8h0ZM99.8,100.5v2.5h0l-35.4,15.2v-7.3l35.4-12.9v2.5ZM135.8,87.6l-34,14.6h0v-4.9l34-12.3v2.6ZM142.3,61.8h0c-.9,2.8-1.3,4.4-2.2,7.8,1.3,4.5,2,6.4,3.4,9.8-2.4.8-3.5,1.2-5.9,1.9-.7-1.9-1.3-4.5-1.9-7.7-.2,1.5-.4,3-.7,4.8-.2,1.6-.4,2.4-.6,4-2.5.8-3.7,1.2-6.2,2,.9-6.6,1.4-9.8,2.3-15.6-.9-4.8-1.4-7.3-2.3-12.7,2.5,1,3.7,1.5,6.2,2.5.1.7.3,1.9.7,3.5.3,1.2.5,2.3.6,3.3.5-2.4.8-3.5,1.4-5.7,2.1.9,3.2,1.3,5.3,2.2h-.1Z"/>
        <path d="M15.3,53.9v10.7c.4,0,.7-.3.8-.8.2-.4.2-1.8.2-3.9v-2.7c0-1.6,0-2.6-.2-3-.1-.4-.4-.5-.8-.3Z"/>
        <path d="M107.2,55.6c-.2-.3-.7-.6-1.4-.8h0v29.4c.9-.2,1.5-.6,1.7-1.3.2-.7.3-2.5.3-5.4v-20.6c0-.6-.2-1-.5-1.3h0Z"/>
      </g>
    </g>
  </g>
</svg>